<?xml version="1.0" encoding="UTF-8"?>
<svg version="1.1" xmlns="http://www.w3.org/2000/svg" width="1024" height="1024">
<path d="M0 0 C337.92 0 675.84 0 1024 0 C1024 337.92 1024 675.84 1024 1024 C686.08 1024 348.16 1024 0 1024 C0 686.08 0 348.16 0 0 Z " fill="#FEFEFE" transform="translate(0,0)"/>
<path d="M0 0 C1.16476364 -0.00990463 2.32952728 -0.01980927 3.52958679 -0.03001404 C5.44878433 -0.02326157 5.44878433 -0.02326157 7.40675354 -0.01637268 C8.76702435 -0.02207487 10.12729037 -0.02903855 11.48754883 -0.03717041 C15.18647475 -0.05514801 18.88516398 -0.05392318 22.58412051 -0.04822803 C25.67739095 -0.04513834 28.77061579 -0.05122718 31.86387974 -0.05726677 C39.17150375 -0.07132963 46.47901095 -0.0697402 53.78663635 -0.05836487 C61.30343209 -0.04692173 68.81986945 -0.06089076 76.33661789 -0.08776134 C82.80223065 -0.11000171 89.26773164 -0.11653588 95.7333799 -0.11068493 C99.58919052 -0.10732913 103.44477228 -0.10963602 107.30055046 -0.12693596 C110.93602494 -0.14253302 114.5709757 -0.13831041 118.20643044 -0.11963081 C120.15787727 -0.11425194 122.10934832 -0.12836756 124.06074524 -0.14332581 C135.66486772 -0.04744101 146.46728627 2.65308154 155.40504456 10.38768005 C163.16417569 18.54708383 167.51358375 27.75764147 167.54307556 39.05110168 C167.5485289 40.18062256 167.55398224 41.31014343 167.55960083 42.47389221 C167.56064316 43.7040506 167.56168549 44.93420898 167.5627594 46.2016449 C167.57055919 48.20216366 167.57836301 50.20268242 167.5863173 52.20320058 C167.59402017 54.35029803 167.59940945 56.49739127 167.60427475 58.64449692 C167.61499938 63.13531604 167.63525962 67.62606098 167.65739441 72.11683655 C167.71915717 84.88628199 167.77317745 97.65572378 167.80641174 110.42527771 C167.82485435 117.48066434 167.85391429 124.53592706 167.89441645 131.59122241 C167.91533547 135.31681606 167.9309219 139.04225457 167.93322372 142.76791 C167.93539775 146.28272545 167.95154138 149.79721862 167.97761345 153.31193542 C167.9880421 155.18998884 167.98409739 157.06810567 167.97943115 158.94618225 C168.09296946 170.7956028 170.28458682 182.24089776 174.15504456 193.45018005 C174.41180969 194.20130066 174.66857483 194.95242126 174.93312073 195.7263031 C185.23373719 224.93668285 207.26650638 249.50899156 234.9912262 263.32200623 C250.86901768 270.85364489 267.03549643 274.69697901 284.61231995 274.65892029 C286.56636979 274.66694323 288.52041962 274.6749686 290.47446907 274.68308556 C292.55241865 274.68989408 294.63032426 274.69193742 296.70828438 274.6926403 C301.05962103 274.69459877 305.41080226 274.71274663 309.76208496 274.73339844 C320.56447568 274.78233771 331.366908 274.81345083 342.16938782 274.83470154 C350.57939497 274.85126595 358.98926663 274.87417348 367.39918321 274.91772228 C371.71591055 274.93937299 376.03237962 274.94756852 380.34915745 274.94532955 C383.67523214 274.9474011 387.00113965 274.96878585 390.3271637 274.98704529 C392.09875854 274.98017952 392.09875854 274.98017952 393.90614319 274.97317505 C405.94847722 275.07798375 417.56463019 278.21036708 426.70191956 286.4618988 C436.8116955 297.35081162 439.71230781 307.87422795 439.67970276 322.44749451 C439.68736916 324.22692192 439.68736916 324.22692192 439.69519043 326.04229736 C439.70665538 329.27337542 439.70916934 332.50429323 439.70662713 335.73538613 C439.70555303 338.43706607 439.71045123 341.13872264 439.71523255 343.84039754 C439.72629536 350.21042445 439.7267814 356.58039235 439.72071838 362.95042419 C439.7146614 369.52053325 439.72704043 376.09042908 439.74828845 382.66050178 C439.76588664 388.30993397 439.77190921 393.95929812 439.76865071 399.60875672 C439.76683707 402.97960011 439.76948322 406.35029087 439.78336525 409.72110939 C439.79564606 413.47252219 439.78898945 417.22343401 439.77735901 420.97483826 C439.78500275 422.09227417 439.79264648 423.20971008 439.80052185 424.36100769 C439.79350754 425.3800972 439.78649323 426.39918671 439.77926636 427.44915771 C439.77951797 428.77892875 439.77951797 428.77892875 439.77977467 430.13556385 C439.31357723 432.9373958 438.62273705 433.65437926 436.40504456 435.38768005 C434.26124489 435.76372755 434.26124489 435.76372755 431.72169685 435.76520348 C430.75332362 435.77302672 429.78495039 435.78084996 428.78723252 435.78891027 C427.72083003 435.7822181 426.65442755 435.77552594 425.55570984 435.76863098 C424.42456879 435.77331095 423.29342773 435.77799093 422.12800968 435.78281271 C418.3167542 435.79483063 414.50585383 435.78527827 410.69459534 435.77586365 C407.9696325 435.77827557 405.24468499 435.78515848 402.51972961 435.79179382 C395.86953892 435.80516061 389.21944961 435.80223811 382.56925489 435.7935559 C377.15521476 435.78678107 371.74120304 435.78586181 366.32715988 435.78912735 C365.17121264 435.7898169 365.17121264 435.7898169 363.99191292 435.79052038 C362.42615787 435.7914796 360.86040283 435.79245224 359.2946478 435.79343815 C344.59231897 435.8020033 329.89004613 435.79214566 315.18772648 435.77603705 C302.60958418 435.76268074 290.03152513 435.76492089 277.4533844 435.77879333 C262.83161547 435.79491229 248.20989597 435.80112882 233.58811939 435.79195654 C232.02261727 435.79100099 230.45711514 435.79005788 228.89161301 435.78912735 C228.12150205 435.78866452 227.35139109 435.7882017 226.55794344 435.78772485 C221.16812956 435.78515022 215.77834733 435.78947375 210.38853836 435.79656601 C203.79315009 435.80505374 197.19786866 435.80255245 190.60249235 435.78672378 C187.24592786 435.77892991 183.88968444 435.77725502 180.53310013 435.78567123 C161.77739587 435.82832257 142.99324966 435.27059529 124.90504456 429.76268005 C123.62814758 429.38309143 123.62814758 429.38309143 122.32545471 428.99583435 C100.06914831 422.11650106 79.31665426 411.2908942 61.40504456 396.38768005 C60.84510803 395.93312439 60.28517151 395.47856873 59.70826721 395.01023865 C21.17953725 363.71705173 -2.43529061 318.07736691 -7.86865878 268.91094494 C-8.50630429 262.36623387 -8.74129411 255.90160721 -8.73539734 249.32835388 C-8.73836846 248.27159895 -8.74133958 247.21484402 -8.74440074 246.12606621 C-8.75301292 242.61560634 -8.75458953 239.10518086 -8.75608826 235.5947113 C-8.7607213 233.0659681 -8.76574661 230.53722559 -8.77113342 228.00848389 C-8.78420227 221.16411054 -8.79072735 214.31974837 -8.79514408 207.47536469 C-8.79791538 203.20026527 -8.80215391 198.92516809 -8.80664825 194.65007019 C-8.81882307 182.804633 -8.82913097 170.95919758 -8.83252335 159.11375427 C-8.83274291 158.35771919 -8.83296248 157.60168412 -8.8331887 156.82273889 C-8.83340698 156.06497273 -8.83362525 155.30720658 -8.83385015 154.52647781 C-8.8342936 152.99111684 -8.83474017 151.45575587 -8.83518982 149.9203949 C-8.83541125 149.15881435 -8.83563268 148.3972338 -8.83586082 147.61257505 C-8.83981841 135.24157563 -8.85730956 122.87063475 -8.88054934 110.49965799 C-8.9042367 97.78778342 -8.91672373 85.07593833 -8.91789126 72.36404133 C-8.91880866 65.23066314 -8.9245786 58.09736161 -8.94271088 50.96400452 C-8.95967725 44.26626959 -8.96138451 37.56870553 -8.95257187 30.87094688 C-8.9517977 28.40820615 -8.9561938 25.9454578 -8.96603012 23.48273659 C-8.9786333 20.13202626 -8.97293666 16.78184276 -8.96244812 13.43113708 C-8.97050452 12.44740521 -8.97856093 11.46367334 -8.98686147 10.45013142 C-8.98027162 9.5557093 -8.97368178 8.66128717 -8.96689224 7.73976135 C-8.96748933 6.96615831 -8.96808642 6.19255527 -8.9687016 5.39550972 C-8.02665155 0.33465221 -4.53243013 0.01086066 0 0 Z " fill="#F6A319" transform="translate(50.59495544433594,518.6123199462891)"/>
<path d="M0 0 C1.79612732 -0.00639748 1.79612732 -0.00639748 3.62854004 -0.01292419 C5.59396255 -0.01224442 5.59396255 -0.01224442 7.59909058 -0.0115509 C8.99543345 -0.01454359 10.3917755 -0.01794638 11.78811646 -0.02172852 C15.57715366 -0.03055836 19.36616829 -0.03290611 23.15521479 -0.0335443 C26.31656695 -0.03449395 29.47791385 -0.03817262 32.63926399 -0.0417164 C40.093649 -0.04985596 47.54802194 -0.05230097 55.00241089 -0.05158997 C62.70052431 -0.05098827 70.39856787 -0.06155943 78.09666359 -0.07733363 C84.70224435 -0.09038841 91.3078022 -0.09577478 97.91339576 -0.09513456 C101.86047249 -0.0948791 105.80748703 -0.09775696 109.75455093 -0.10831261 C113.46291468 -0.11795977 117.17115631 -0.11809623 120.87952423 -0.11079597 C122.89490852 -0.10924406 124.91029271 -0.11761913 126.92565918 -0.12623596 C128.71332703 -0.11994423 128.71332703 -0.11994423 130.53710938 -0.11352539 C131.57722734 -0.11407016 132.61734531 -0.11461493 133.68898201 -0.1151762 C136.14157104 0.13371277 136.14157104 0.13371277 138.14157104 2.13371277 C138.39457071 4.10316837 138.39457071 4.10316837 138.39883995 6.57186699 C138.40528884 7.51099871 138.41173774 8.45013042 138.41838205 9.41772068 C138.41373624 10.97602546 138.41373624 10.97602546 138.40899658 12.56581116 C138.41352769 13.66413493 138.41805881 14.76245871 138.42272723 15.89406502 C138.43545731 19.60012886 138.43374525 23.30604736 138.43209839 27.01213074 C138.43807883 29.65974989 138.44482634 32.3073574 138.45245361 34.95497131 C138.46909785 41.41978165 138.47456498 47.88455552 138.47567837 54.34938549 C138.4766286 59.61232982 138.48073771 64.87526213 138.48707962 70.13820267 C138.50471257 85.07688695 138.51391697 100.01554245 138.51241867 114.95423721 C138.51233876 115.76031473 138.51225885 116.56639225 138.51217651 117.39689636 C138.51209475 118.20396637 138.51201299 119.01103637 138.51192875 119.84256305 C138.51111849 132.87842493 138.53018503 145.91417052 138.55845325 158.94999884 C138.58728441 172.35211404 138.60098748 185.75417279 138.59926569 199.15631974 C138.59860461 206.6732467 138.60397048 214.19005226 138.6256218 221.70695114 C138.64397014 228.1183194 138.64807156 234.52951148 138.63460295 240.94089483 C138.62813705 244.20420632 138.62995589 247.46711641 138.64530945 250.73040771 C138.71108686 265.69256446 137.84727923 279.60549779 134.14157104 294.13371277 C133.87250631 295.21089003 133.60344158 296.28806728 133.32622337 297.39788628 C132.71971775 299.72897591 132.0494536 302.023033 131.32907104 304.32121277 C130.95177856 305.54554016 130.95177856 305.54554016 130.56686401 306.79460144 C121.07181121 336.82539844 104.58617652 361.30558436 83.14157104 384.13371277 C82.56020386 384.76922058 81.97883667 385.40472839 81.37985229 386.05949402 C63.75402951 404.66206265 39.94704821 417.42075919 16.14157104 426.13371277 C14.93629761 426.57586121 13.73102417 427.01800964 12.48922729 427.47355652 C-8.73782085 434.68067606 -30.29017802 435.72057909 -52.52981567 435.61955261 C-55.31826126 435.61948385 -58.1066872 435.62543184 -60.89512634 435.63105774 C-67.6143116 435.64102446 -74.33329651 435.63001424 -81.05245678 435.61135714 C-88.88785087 435.59039465 -96.72320386 435.59073438 -104.55862071 435.5917023 C-118.5290414 435.59269818 -132.49936967 435.57451359 -146.46975708 435.54533386 C-160.01827676 435.5170502 -173.56671531 435.50299779 -187.11526489 435.50431824 C-187.95314847 435.50439815 -188.79103205 435.50447806 -189.65430604 435.5045604 C-190.4907711 435.50464111 -191.32723616 435.50472181 -192.18904865 435.50480497 C-207.65398708 435.50618276 -223.11889125 435.49443113 -238.58381858 435.47649854 C-244.04590981 435.47046504 -249.50799476 435.46833948 -254.97008896 435.46743393 C-261.60868481 435.46607275 -268.24722265 435.45718392 -274.88579385 435.43876831 C-278.27247435 435.42951444 -281.65908045 435.42344808 -285.04577446 435.42595673 C-288.70915678 435.42693149 -292.37229594 435.4156935 -296.03564453 435.40113831 C-297.11458634 435.40423551 -298.19352815 435.40733271 -299.30516517 435.41052377 C-300.28014744 435.40407488 -301.25512972 435.39762599 -302.25965691 435.39098167 C-303.10557455 435.38957282 -303.95149219 435.38816397 -304.8230437 435.38671243 C-306.85842896 435.13371277 -306.85842896 435.13371277 -308.85842896 433.13371277 C-309.11569786 431.01861095 -309.11569786 431.01861095 -309.12585449 428.34909058 C-309.13438446 427.33860153 -309.14291443 426.32811249 -309.15170288 425.28700256 C-309.15079651 424.1738266 -309.14989014 423.06065063 -309.1489563 421.91374207 C-309.15567352 420.74439621 -309.16239075 419.57505035 -309.16931152 418.37026978 C-309.18509449 415.15470165 -309.19166942 411.93928826 -309.1929431 408.72368598 C-309.19436469 406.71043083 -309.19863485 404.69720269 -309.20393753 402.68395424 C-309.2224668 395.64692599 -309.23060617 388.60997358 -309.22903442 381.57292175 C-309.22783825 375.0382993 -309.24882925 368.50400997 -309.28052175 361.96947163 C-309.30681451 356.34547983 -309.31739604 350.72159573 -309.3161236 345.09754306 C-309.31561694 341.74517115 -309.32300877 338.39332706 -309.34247971 335.04097557 C-309.36223145 331.2860512 -309.35626282 327.53196321 -309.3442688 323.77702332 C-309.35550781 322.68611389 -309.36674683 321.59520447 -309.37832642 320.47123718 C-309.27209963 307.28298353 -305.32411823 295.96147935 -296.16702271 286.36027527 C-285.41469247 276.53099891 -274.17355121 274.82541528 -260.05276489 274.89421082 C-258.79771149 274.89219666 -257.54265808 274.8901825 -256.24957275 274.8881073 C-253.53391331 274.88457266 -250.81849936 274.88447825 -248.10286713 274.88988304 C-243.7864828 274.89755986 -239.47026133 274.88675906 -235.15390015 274.87268066 C-222.88417959 274.83514137 -210.61453264 274.81667012 -198.34475708 274.82829285 C-191.5565963 274.8345642 -184.76870043 274.82264982 -177.98060441 274.79184753 C-174.40340952 274.77643748 -170.82673604 274.76991107 -167.24953461 274.78642845 C-129.95391481 274.94741189 -99.18134891 265.6437194 -71.85842896 239.13371277 C-51.0947026 218.44146224 -37.84454949 189.13807607 -37.70387268 159.74311829 C-37.70283035 158.51229523 -37.70178802 157.28147217 -37.70071411 156.01335144 C-37.69291498 154.00022569 -37.6851118 151.98709996 -37.67715621 149.97397482 C-37.66946821 147.82018769 -37.66407099 145.66640471 -37.65919876 143.51260948 C-37.64846222 139.01040183 -37.62820284 134.50826781 -37.6060791 130.00610352 C-37.54434338 117.20712155 -37.49018194 104.40814503 -37.45706177 91.60905457 C-37.43866911 84.53209331 -37.40967856 77.45525676 -37.36905706 70.37838727 C-37.34807135 66.64012734 -37.33254177 62.90202393 -37.33024979 59.16370201 C-37.32768735 54.98971328 -37.30214816 50.81615858 -37.27493286 46.64225769 C-37.277939 45.41750732 -37.28094513 44.19275696 -37.28404236 42.93089294 C-37.16724564 30.8442088 -34.30946986 20.26454078 -26.04202271 11.12590027 C-18.66000035 4.23601274 -10.11572763 0.01628671 0 0 Z " fill="#166AA2" transform="translate(842.8584289550781,518.8662872314453)"/>
<path d="M0 0 C1.1768868 -0.00382555 2.3537736 -0.00765109 3.56632364 -0.01159257 C6.7920585 -0.02005009 10.0176453 -0.01971829 13.24338365 -0.01541197 C16.7374629 -0.01292564 20.23151639 -0.02198178 23.72558594 -0.02944946 C30.55149277 -0.04214082 37.37736018 -0.04399757 44.20327683 -0.0416492 C49.74880739 -0.03986151 55.29432605 -0.04162529 60.83985519 -0.04587364 C62.02654386 -0.04676643 62.02654386 -0.04676643 63.23720603 -0.04767724 C64.8445509 -0.04888904 66.45189576 -0.05010317 68.05924062 -0.05131962 C83.09774002 -0.06217131 98.13621694 -0.0600425 113.17471759 -0.05393478 C126.9391274 -0.04875399 140.7034667 -0.06005581 154.46786256 -0.07903299 C168.61266052 -0.09838506 182.75742505 -0.1066729 196.90223634 -0.10290974 C204.83929354 -0.10099545 212.77629054 -0.10350848 220.71333694 -0.11762428 C227.46123679 -0.12950466 234.20903926 -0.13097986 240.95694037 -0.11883412 C244.40041883 -0.11292503 247.84371885 -0.11190201 251.28718567 -0.12383652 C255.01437917 -0.13420755 258.74108639 -0.12628133 262.46826172 -0.11352539 C264.11106942 -0.12458682 264.11106942 -0.12458682 265.78706515 -0.13587171 C267.27837594 -0.12506189 267.27837594 -0.12506189 268.79981422 -0.1140337 C269.66042823 -0.11408871 270.52104224 -0.11414373 271.40773547 -0.11420041 C274.08859358 0.34441499 274.97424804 1.11566097 276.59921265 3.26069641 C276.97952938 5.48322868 276.97952938 5.48322868 276.9868927 8.12760925 C277.00174965 9.63278358 277.00174965 9.63278358 277.01690674 11.16836548 C277.01240509 12.26859543 277.00790344 13.36882538 277.00326538 14.50239563 C277.01356026 16.2420031 277.01356026 16.2420031 277.02406311 18.01675415 C277.04242201 21.86642068 277.0384776 25.7156828 277.0328064 29.56538391 C277.0362139 31.56600166 277.03962897 33.5666196 277.04415947 35.56723511 C277.05822131 41.86809495 277.05663504 48.16881933 277.04525757 54.46968079 C277.0338269 60.94242625 277.04776222 67.41475492 277.07465404 73.88744533 C277.09693073 79.46051613 277.10342018 85.03345732 277.09757763 90.60656941 C277.09422885 93.92756073 277.09822172 97.24823003 277.11382866 100.56919479 C277.12883115 104.28812052 277.11798934 108.00615264 277.10092163 111.72505188 C277.1105896 112.80503952 277.12025757 113.88502716 277.13021851 114.9977417 C276.99954044 128.70649262 272.53654248 139.93705947 263.34921265 150.01069641 C256.68823973 156.3762825 247.04069415 160.50908035 237.842453 160.51225281 C236.7173381 160.51763565 235.59222321 160.52301849 234.43301392 160.52856445 C233.21273499 160.52444046 231.99245605 160.52031647 230.73519897 160.5160675 C228.74423945 160.52162576 226.75327993 160.52718832 224.76232088 160.53291154 C222.62784172 160.53724362 220.49340918 160.53678359 218.35892677 160.5350914 C213.88790619 160.53224362 209.41704182 160.5466694 204.94606018 160.56407166 C192.23354479 160.61094446 179.52103917 160.63499511 166.80844116 160.64155579 C159.78266143 160.64533456 152.7570581 160.66359372 145.73135394 160.69665015 C142.02458631 160.7133858 138.31813913 160.72280104 134.61133766 160.71371078 C115.45445261 160.6707091 96.62850214 160.85213994 78.84921265 168.94819641 C78.07102173 169.2914093 77.29283081 169.63462219 76.49105835 169.98823547 C46.10767195 183.74323343 23.67011847 208.19231306 11.59921265 239.26069641 C9.82863064 244.49328427 8.56351322 249.82302699 7.59921265 255.26069641 C7.43350454 256.18647208 7.26779644 257.11224775 7.09706688 258.06607723 C5.82537402 265.6880661 5.31423489 273.02632657 5.34384155 280.74531555 C5.3402211 281.91787399 5.33660065 283.09043243 5.33287048 284.29852295 C5.32602873 286.81977631 5.32346113 289.34104432 5.32481766 291.86230659 C5.32579113 295.86150484 5.31316429 299.86053131 5.2958374 303.85968018 C5.24915431 315.22159818 5.22487467 326.58350095 5.21835327 337.94551086 C5.21458644 344.24321095 5.19643733 350.54071307 5.16325891 356.8383283 C5.14647761 360.15747615 5.13951852 363.47618715 5.14619827 366.79538155 C5.15330593 370.49904624 5.13591146 374.20188505 5.1133728 377.9054718 C5.12563148 379.52130661 5.12563148 379.52130661 5.13813782 381.16978455 C5.01973138 392.17238728 2.18989124 402.10837568 -5.40078735 410.26069641 C-6.03758423 410.95034485 -6.6743811 411.63999329 -7.33047485 412.35054016 C-15.89808033 420.77692137 -26.10772304 423.80881942 -37.94407654 423.90501404 C-39.21264999 423.89017975 -40.48122345 423.87534546 -41.78823853 423.86006165 C-43.17606036 423.86193103 -44.56388068 423.86597908 -45.95169067 423.87200928 C-49.676439 423.88188076 -53.40041135 423.86099552 -57.12504745 423.83352923 C-61.03581712 423.80951339 -64.94657634 423.81264286 -68.85740662 423.81222534 C-75.40951519 423.80761744 -81.96133045 423.7840965 -88.51333618 423.74775696 C-96.0906674 423.70584299 -103.66773603 423.68842999 -111.24517649 423.68513721 C-119.32795167 423.68154333 -127.41063253 423.66269868 -135.49336839 423.63801694 C-137.82026282 423.63178613 -140.14715009 423.62815159 -142.47405052 423.62498283 C-146.11938354 423.61909692 -149.76452807 423.6028254 -153.40978241 423.57837868 C-155.38926668 423.56735687 -157.36879769 423.56609802 -159.34831238 423.56507874 C-160.51867035 423.55510361 -161.68902832 423.54512848 -162.89485168 423.53485107 C-164.42643307 423.52787531 -164.42643307 423.52787531 -165.9889555 423.52075863 C-168.40078735 423.26069641 -168.40078735 423.26069641 -170.40078735 421.26069641 C-170.65378702 419.34483838 -170.65378702 419.34483838 -170.65805626 416.95306778 C-170.66450515 416.04303663 -170.67095404 415.13300547 -170.67759836 414.19539762 C-170.67450115 413.18901958 -170.67140395 412.18264155 -170.66821289 411.14576721 C-170.672744 410.08152299 -170.67727512 409.01727876 -170.68194354 407.92078471 C-170.69467283 404.32994376 -170.6929616 400.73925284 -170.6913147 397.14839172 C-170.69729527 394.58283796 -170.70409971 392.01728601 -170.71166992 389.45173645 C-170.72831483 383.18678369 -170.73378136 376.92186856 -170.73489468 370.65689555 C-170.73584509 365.5551048 -170.73995515 360.45332644 -170.74629593 355.35153961 C-170.76393083 340.8656867 -170.77313324 326.37986345 -170.77163498 311.89399973 C-170.77155507 311.11234362 -170.77147516 310.33068751 -170.77139282 309.52534485 C-170.77131106 308.74272438 -170.7712293 307.96010391 -170.77114506 307.15376768 C-170.77033525 294.52017992 -170.78938968 281.88671229 -170.81766956 269.2531592 C-170.84652219 256.26009857 -170.86020255 243.26709621 -170.858482 230.27400279 C-170.85782154 222.98840067 -170.86315929 215.70292385 -170.8848381 208.41735077 C-170.90515412 201.54563619 -170.9042507 194.67418795 -170.88980484 187.80245972 C-170.88773165 185.29610557 -170.8923273 182.78973444 -170.90452576 180.28340912 C-171.13975893 128.54799383 -151.36584747 85.06848505 -115.40078735 48.26069641 C-112.84070632 45.77252777 -110.1887324 43.48903585 -107.40078735 41.26069641 C-106.47137329 40.50530579 -105.54195923 39.74991516 -104.5843811 38.97163391 C-74.93319829 15.27022562 -38.3125544 -0.13495743 0 0 Z " fill="#EF4617" transform="translate(213.40078735351563,54.73930358886719)"/>
<path d="M0 0 C2.03883725 -0.37604749 2.03883725 -0.37604749 4.60715199 -0.37752342 C5.58398435 -0.38534666 6.56081672 -0.39316991 7.56725007 -0.40123022 C8.64823824 -0.39453805 9.72922641 -0.38784589 10.8429718 -0.38095093 C12.55677773 -0.38797089 12.55677773 -0.38797089 14.305206 -0.39513266 C17.48690603 -0.4050621 20.66826555 -0.40144247 23.84995735 -0.39217401 C27.27845929 -0.38540906 30.70691385 -0.39585298 34.13540649 -0.40411377 C40.86126642 -0.41748883 47.58702616 -0.41455431 54.31289009 -0.40587585 C59.78845292 -0.3991038 65.26398764 -0.39818055 70.73955345 -0.4014473 C71.51864652 -0.401907 72.29773959 -0.40236669 73.10044154 -0.40284032 C74.68334913 -0.40379954 76.2662567 -0.40477218 77.84916427 -0.4057581 C92.71697031 -0.41432577 107.584721 -0.40446189 122.45251795 -0.388357 C135.17337 -0.37500255 147.89413974 -0.37723879 160.61499023 -0.39111328 C175.39972592 -0.4072314 190.18441272 -0.41344905 204.96915597 -0.40427649 C206.55208631 -0.40332093 208.13501665 -0.40237782 209.71794701 -0.4014473 C210.88599442 -0.40075306 210.88599442 -0.40075306 212.07763875 -0.40004479 C217.5285556 -0.39746976 222.97944116 -0.40179463 228.43035316 -0.40888596 C235.10079073 -0.41737283 241.77112265 -0.41487422 248.44154838 -0.39904372 C251.83658487 -0.39124843 255.23130383 -0.38957676 258.62635994 -0.39799118 C307.34854688 -0.50750999 352.92784293 12.59005818 388.43505859 47.47021484 C390.02834228 49.02770558 391.64666068 50.5554449 393.26953125 52.08203125 C421.04703777 78.57186604 443.61258723 120.57579061 445.0939697 159.46701789 C445.13127009 162.30210881 445.13809244 165.13570308 445.13371277 167.97103882 C445.13597833 169.05452091 445.13824388 170.138003 445.14057809 171.25431788 C445.14689212 174.87316947 445.14609042 178.49198336 445.14526367 182.11083984 C445.14825661 184.70972746 445.15165945 187.30861463 445.15544128 189.90750122 C445.16372672 196.22507445 445.16649509 202.54263834 445.16705366 208.86021654 C445.16752941 213.99254261 445.16958707 219.12486561 445.17275429 224.2571907 C445.18155171 238.80890324 445.18617458 253.36060842 445.18542381 267.91232364 C445.18536388 269.08760088 445.18536388 269.08760088 445.18530273 270.28662109 C445.18526185 271.07109476 445.18522097 271.85556843 445.18517885 272.66381402 C445.18477167 285.40102407 445.19436181 298.13820467 445.2084411 310.87540619 C445.22278438 323.95443475 445.22971256 337.0334489 445.22884732 350.11248553 C445.22851486 357.45544915 445.23128428 364.7983818 445.24202538 372.14133835 C445.25204882 379.03763027 445.25181628 385.93385553 445.24450874 392.8301506 C445.24345764 395.36748347 445.24585662 397.90482034 445.2518692 400.4421463 C445.25951761 403.89179736 445.25499228 407.34121741 445.24723816 410.79086304 C445.25238172 411.80679075 445.25752529 412.82271846 445.26282471 413.86943185 C445.25822592 414.78809679 445.25362712 415.70676173 445.24888897 416.653265 C445.24921502 417.84857497 445.24921502 417.84857497 445.24954766 419.06803262 C445 421 445 421 443 423 C440.56975746 423.26006222 440.56975746 423.26006222 437.44937134 423.27415466 C436.26915405 423.28412979 435.08893677 423.29410492 433.87295532 423.30438232 C432.57119354 423.305047 431.26943176 423.30571167 429.92822266 423.30639648 C428.5483963 423.31401537 427.1685742 423.3224424 425.78875732 423.33161926 C422.03198338 423.35361491 418.27529088 423.36237145 414.5184598 423.36744571 C412.16818431 423.37108736 409.81793017 423.37732683 407.46766281 423.3844471 C399.25821751 423.40897203 391.04883552 423.42199727 382.83935547 423.42553711 C375.20609206 423.42916109 367.57323356 423.45896636 359.94009364 423.50094169 C353.37684886 423.5357582 346.8137373 423.55108761 340.2504009 423.55178314 C336.33524869 423.55257298 332.42050745 423.56117258 328.5054512 423.58978081 C324.81330638 423.61615261 321.12190722 423.618062 317.42971039 423.60212517 C315.44720225 423.59947419 313.46470742 423.62137053 311.48233032 423.64431763 C300.84082479 423.5583374 289.82374388 420.67577709 282 413 C272.59038951 402.30482603 269.37487491 391.34207513 269.51757812 377.26513672 C269.51366562 376.05359421 269.50975311 374.8420517 269.50572205 373.59379578 C269.49823881 370.30600223 269.50790561 367.01878883 269.52422142 363.7310462 C269.53611388 360.26011748 269.52202886 356.78930343 269.5098877 353.31838989 C269.48102305 343.7589562 269.49152312 334.19964607 269.50258636 324.64019012 C269.51231638 315.88428712 269.51325092 307.12860116 269.48270559 298.37273419 C269.47164792 294.93375759 269.46868894 291.49520062 269.4858551 288.05624008 C269.56743166 269.26368278 268.63635238 252.19797436 261.25 234.6875 C260.90493408 233.8526709 260.55986816 233.0178418 260.2043457 232.15771484 C248.20925667 203.95223648 224.77583033 180.49653817 196.33691406 168.91552734 C181.76311201 163.43409198 168.04699493 160.68643006 152.43554688 160.76049805 C150.44126116 160.75740631 148.44697545 160.75430833 146.45269012 160.75097525 C144.33396604 160.74916446 142.21529326 160.75206873 140.09657288 160.75617027 C135.6564035 160.76385523 131.21639202 160.75304162 126.77624512 160.7389679 C114.15892845 160.70143807 101.54168657 160.6830303 88.92431641 160.69458008 C81.93625916 160.70081873 74.94846061 160.68911006 67.96046686 160.65813476 C63.55797523 160.63961266 59.15622415 160.64266914 54.75374603 160.66230237 C51.35718037 160.67087102 47.96097323 160.64669442 44.56445312 160.62768555 C43.36409927 160.63945328 42.16374542 160.65122101 40.92701721 160.66334534 C28.2351603 160.52472513 18.31725942 155.81209297 9.1328125 147.26171875 C1.76900144 139.62927081 -2.1136894 129.38501105 -2.13371277 118.82528687 C-2.13797775 117.80463638 -2.14224274 116.7839859 -2.14663696 115.73240662 C-2.14618378 114.62365677 -2.14573059 113.51490692 -2.14526367 112.37255859 C-2.14862228 111.1964653 -2.1519809 110.02037201 -2.15544128 108.80863953 C-2.16330195 105.59188452 -2.16661806 102.37516829 -2.16725707 99.15840483 C-2.16796876 97.14840259 -2.17010525 95.13840709 -2.17275429 93.12840652 C-2.18199531 86.11587342 -2.18609038 79.1033593 -2.18530273 72.09082031 C-2.18470098 65.55320081 -2.19527496 59.01566356 -2.2110464 52.47806489 C-2.22411068 46.8626731 -2.22948716 41.24730826 -2.22884732 35.63190138 C-2.22859218 32.2789283 -2.23145294 28.92602848 -2.24202538 25.57307053 C-2.25177776 21.838194 -2.24896645 18.10353203 -2.24291992 14.36865234 C-2.24853943 13.25585403 -2.25415894 12.14305573 -2.25994873 10.99653625 C-2.25575424 9.98152542 -2.25155975 8.96651459 -2.24723816 7.92074585 C-2.24778293 7.03770971 -2.24832769 6.15467358 -2.24888897 5.24487877 C-2 3 -2 3 0 0 Z " fill="#319879" transform="translate(536,55)"/>
<path d="M0 0 C10.50189101 6.60923424 18.36468036 16.41787047 21.4765625 28.55859375 C21.77677531 31.81332218 21.80132548 35.0417349 21.7890625 38.30859375 C21.80517578 39.15164063 21.82128906 39.9946875 21.83789062 40.86328125 C21.84142631 45.48795557 21.35026213 49.45735764 19.95385742 53.87988281 C19.67869797 54.7616217 19.40353851 55.6433606 19.12004089 56.55181885 C18.90769302 57.21405457 18.69534515 57.87629028 18.4765625 58.55859375 C18.87444473 58.9409317 19.27232697 59.32326965 19.68226624 59.7171936 C23.87384571 63.75217381 28.03918483 67.81296163 32.19116211 71.88867188 C33.73750437 73.40012215 35.29010941 74.90519562 36.84936523 76.40332031 C58.00448819 96.75027004 58.00448819 96.75027004 59.2734375 111.203125 C59.29147554 112.92575767 59.27655185 114.64909208 59.2265625 116.37109375 C59.11990713 126.3171783 59.11990713 126.3171783 62.4765625 135.55859375 C64.41367631 136.7873631 64.41367631 136.7873631 66.4765625 137.55859375 C67.1365625 137.88859375 67.7965625 138.21859375 68.4765625 138.55859375 C70.35501158 138.67841632 72.23757081 138.73588536 74.11962891 138.76391602 C75.31724854 138.7840979 76.51486816 138.80427979 77.7487793 138.82507324 C79.01246338 138.84154907 80.27614746 138.8580249 81.578125 138.875 C83.31485474 138.90297668 83.31485474 138.90297668 85.08666992 138.93151855 C89.42488747 138.99998092 93.76323458 139.0600243 98.1015625 139.12109375 C112.6421875 139.33765625 112.6421875 139.33765625 127.4765625 139.55859375 C127.4765625 119.42859375 127.4765625 99.29859375 127.4765625 78.55859375 C125.8265625 77.89859375 124.1765625 77.23859375 122.4765625 76.55859375 C116.37767618 72.31640115 112.09254627 66.98819803 108.4765625 60.55859375 C108.06148437 59.85605469 107.64640625 59.15351563 107.21875 58.4296875 C102.81967252 49.58538837 103.06302069 37.92747315 105.171875 28.42578125 C106.08964236 25.96554774 107.14189772 23.81757607 108.4765625 21.55859375 C109.13011719 20.39650391 109.13011719 20.39650391 109.796875 19.2109375 C116.0477431 8.98069162 125.386118 2.16948052 137.0390625 -0.75390625 C148.79936878 -2.89214376 160.09286587 -0.71642172 170.16015625 5.828125 C176.63398609 10.66439248 181.81111912 16.33878104 185.4765625 23.55859375 C185.95609375 24.5021875 185.95609375 24.5021875 186.4453125 25.46484375 C190.39079557 34.96322891 189.81102515 47.00673839 186.4140625 56.55859375 C182.3005605 65.79957024 176.2133178 73.2928362 167.4765625 78.55859375 C166.4865625 78.55859375 165.4965625 78.55859375 164.4765625 78.55859375 C164.4765625 122.11859375 164.4765625 165.67859375 164.4765625 210.55859375 C196.06494897 213.67146308 196.06494897 213.67146308 226.4765625 201.55859375 C230.5176825 194.92841721 231.62486314 189.40511483 231.58666992 181.67578125 C231.5872126 180.03670246 231.5877996 178.39762368 231.58842468 176.75854492 C231.58699652 175.89151947 231.58556835 175.02449402 231.58409691 174.13119507 C231.58056371 169.51709234 231.60640546 164.90310944 231.62695312 160.2890625 C231.6512218 154.42779397 231.66705099 148.56687803 231.65161133 142.70556641 C231.63988244 137.96086571 231.65752897 133.21703787 231.69405556 128.47247314 C231.70261607 126.67378615 231.70067542 124.87501446 231.6875515 123.07635498 C231.59343812 109.12760753 233.76070952 98.66577423 243.8515625 88.30859375 C244.56372925 87.56766479 244.56372925 87.56766479 245.2902832 86.81176758 C246.6722248 85.38089532 248.07395023 83.96920951 249.4765625 82.55859375 C250.20488281 81.80449219 250.93320312 81.05039062 251.68359375 80.2734375 C254.80960336 77.0734395 258.02629043 74.04204683 261.4140625 71.12109375 C262.05859375 70.54875 262.703125 69.97640625 263.3671875 69.38671875 C264.90026227 68.05805395 266.48043749 66.7831454 268.0859375 65.54296875 C270.70097635 63.33999663 272.68874033 61.4787033 274.4765625 58.55859375 C274.35575026 55.41282888 273.50841193 52.97036066 272.4765625 50 C269.52307132 39.83583698 270.4340346 27.86020595 275.4765625 18.55859375 C283.1637013 5.71717525 293.24170124 -1.63769691 307.44921875 -6.0546875 C319.79778964 -8.41019524 333.06446871 -5.33482011 343.4765625 1.55859375 C352.98997077 9.22984828 358.62332828 17.99889108 362.4765625 29.55859375 C363.82257788 43.3083964 362.76287911 55.39366757 354.6015625 66.93359375 C353.58125893 68.16001925 352.53971758 69.36912321 351.4765625 70.55859375 C350.97640625 71.161875 350.47625 71.76515625 349.9609375 72.38671875 C343.72624771 79.34778017 333.82565035 84.62977558 324.4765625 85.55859375 C310.13491675 86.09896126 310.13491675 86.09896126 305.68334961 84.6484375 C302.0333125 84.54617533 301.66148076 84.85270989 299.05737305 87.16723633 C297.80779408 88.41116553 296.5774282 89.67458886 295.36328125 90.953125 C294.38075127 91.94695442 294.38075127 91.94695442 293.37837219 92.96086121 C291.29002094 95.08175795 289.22750681 97.22598595 287.1640625 99.37109375 C285.7561209 100.80557281 284.34663238 102.23853533 282.93554688 103.66992188 C280.36408929 106.29171154 277.79572444 108.91613904 275.2487793 111.56176758 C274.73615036 112.09328934 274.22352142 112.6248111 273.69535828 113.17243958 C270.82532778 116.43656703 271.32470859 119.9183372 271.31884766 124.03076172 C271.31376694 124.80181747 271.30868622 125.57287323 271.30345154 126.36729431 C271.29273472 128.0462314 271.2841197 129.7251829 271.27733231 131.40414047 C271.26553617 134.07086342 271.24607616 136.73742493 271.22421265 139.40408325 C271.1626587 146.98808313 271.10877444 154.57207074 271.07519531 162.15625 C271.05410585 166.79471818 271.01867831 171.43289879 270.97443771 176.07120132 C270.96037673 177.83079742 270.95157792 179.59044447 270.94838333 181.35009384 C270.91004668 200.46413122 267.38086208 217.23324841 253.79785156 231.49633789 C239.899642 245.30774229 224.58287725 248.09049752 205.74990845 248.03587341 C201.84589476 247.99755027 197.94273322 247.93498559 194.0390625 247.87109375 C191.36134915 247.84309438 188.68364997 247.82316554 186.00585938 247.80273438 C179.49506255 247.75235681 172.98747693 247.65443645 166.4765625 247.55859375 C166.4765625 256.13859375 166.4765625 264.71859375 166.4765625 273.55859375 C168.41305664 273.53764648 170.34955078 273.51669922 172.34472656 273.49511719 C178.78670124 273.43027358 185.22859795 273.3845004 191.6708107 273.35134506 C195.57174375 273.33058634 199.47231942 273.30248734 203.37304688 273.25683594 C207.14674068 273.21295425 210.92009362 273.18936889 214.69402313 273.17908478 C216.12436021 273.17176841 217.55468142 273.15748429 218.98487091 273.13567352 C234.24528651 272.91248265 246.54324149 276.51406717 258.06600952 286.89041138 C260.73543843 289.52061985 263.32176491 292.21276012 265.89453125 294.9375 C266.84446226 295.9203973 267.79610336 296.90164441 268.74934387 297.8813324 C272.74971564 301.99646377 276.72811045 306.13198617 280.6784668 310.29516602 C283.11417122 312.85976872 285.57371106 315.39936377 288.04986 317.92490959 C289.43337905 319.3506264 290.78894651 320.80329744 292.1438446 322.25624084 C296.22818905 326.81122062 296.22818905 326.81122062 301.72357178 328.68583679 C304.14079855 328.13320059 304.14079855 328.13320059 307.4765625 326.55859375 C310.44027227 326.2196861 313.36972879 326.22373639 316.3515625 326.24609375 C317.14240234 326.2517334 317.93324219 326.25737305 318.74804688 326.26318359 C330.93523677 326.51604025 340.81479432 330.92204384 349.7265625 339.30859375 C358.39785691 348.50542115 363.08017209 359.24676526 362.9140625 371.87109375 C362.90503906 372.69996094 362.89601563 373.52882813 362.88671875 374.3828125 C362.51798735 387.53423232 357.49884402 397.09918226 348.53125 406.625 C337.82963714 416.65505416 325.15393846 419.28987502 310.95703125 418.9296875 C299.44823269 418.24985307 288.75202247 411.40149815 281.15234375 402.984375 C276.50118958 396.95764843 273.57090212 390.85920137 271.4765625 383.55859375 C271.28320312 382.93082031 271.08984375 382.30304688 270.890625 381.65625 C270.31327326 378.7313643 270.30558057 375.91345415 270.2890625 372.93359375 C270.27488281 371.78632812 270.26070312 370.6390625 270.24609375 369.45703125 C270.4765625 365.55859375 270.4765625 365.55859375 271.23883057 363.33755493 C272.14143184 360.58749946 272.57209977 358.46070413 272.4765625 355.55859375 C270.26444669 351.61908607 267.1504067 348.76233995 263.87890625 345.68359375 C262.97789688 344.79244873 262.07688751 343.90130371 261.14857483 342.9831543 C259.23958335 341.10542194 257.32399743 339.24286696 255.38500977 337.39697266 C252.90678501 335.03755853 250.46206013 332.64686722 248.02805233 330.24194336 C245.69707331 327.94095751 243.3510257 325.65559818 241.00390625 323.37109375 C240.12661362 322.51596191 239.24932098 321.66083008 238.34544373 320.77978516 C237.51851517 319.9913623 236.69158661 319.20293945 235.83959961 318.390625 C235.11630966 317.69686768 234.39301971 317.00311035 233.64781189 316.28833008 C229.42948046 312.92777594 225.70908797 312.30679407 220.40112305 312.23974609 C219.20025558 312.2198764 217.99938812 312.20000671 216.76213074 312.17953491 C215.47551041 312.1679837 214.18889008 312.1564325 212.86328125 312.14453125 C211.52520061 312.12580777 210.18713163 312.10623348 208.84907532 312.08584595 C205.33929334 312.03464305 201.82947312 311.99495439 198.31951904 311.95770264 C194.73309972 311.91758836 191.1468378 311.86653001 187.56054688 311.81640625 C180.53266149 311.71978739 173.50468558 311.63635036 166.4765625 311.55859375 C166.4765625 319.14859375 166.4765625 326.73859375 166.4765625 334.55859375 C168.1265625 335.21859375 169.7765625 335.87859375 171.4765625 336.55859375 C177.9908956 340.97679269 181.9314882 346.63410282 185.4765625 353.55859375 C185.98896484 354.47705078 185.98896484 354.47705078 186.51171875 355.4140625 C191.00934066 364.89044727 189.22266144 377.9966017 185.8671875 387.51953125 C180.25573008 399.78277246 170.89176267 407.67424384 158.4765625 412.55859375 C146.3870637 415.14335804 135.22718032 414.2173776 124.59765625 407.828125 C114.03964145 400.63143736 106.91575057 391.27884555 104.4765625 378.55859375 C103.48717217 364.00969002 105.85426753 353.02901218 115.4765625 341.55859375 C123.54281509 333.55859375 123.54281509 333.55859375 128.4765625 333.55859375 C128.4765625 305.83859375 128.4765625 278.11859375 128.4765625 249.55859375 C119.7728125 249.62046875 111.0690625 249.68234375 102.1015625 249.74609375 C99.37342285 249.75278076 96.6452832 249.75946777 93.83447266 249.76635742 C91.64483259 249.79282907 89.45521335 249.82111194 87.265625 249.8515625 C86.15082764 249.84757446 85.03603027 249.84358643 83.88745117 249.83947754 C76.45235113 249.97321417 70.6667628 251.28031749 64.4765625 255.55859375 C60.87289544 259.37038571 59.35908071 263.56932746 59.3347168 268.76367188 C59.32768234 269.60885376 59.32064789 270.45403564 59.31340027 271.3248291 C59.30715385 272.69351135 59.30715385 272.69351135 59.30078125 274.08984375 C59.277563 276.03516683 59.25344488 277.98047934 59.22851562 279.92578125 C59.19357294 282.98216623 59.16415284 286.03816723 59.15063477 289.09472656 C59.06345992 305.59088974 58.18605296 317.85130318 45.99090576 330.04394531 C44.27699263 331.71683986 42.54993107 333.37478357 40.81640625 335.02734375 C40.2185733 335.59815674 39.62074036 336.16896973 39.00479126 336.75708008 C36.50932709 339.13305784 34.01426517 341.50717882 31.47680664 343.83837891 C29.60602831 345.56382404 27.77239678 347.32235788 25.94140625 349.08984375 C25.36245102 349.60575073 24.78349579 350.12165771 24.18699646 350.65319824 C22.34192979 352.35721745 22.34192979 352.35721745 20.4765625 355.55859375 C20.61677699 358.75625597 21.52109712 361.52534936 22.4765625 364.55859375 C23.68596202 377.89011408 21.53174756 389.5962434 13.3203125 400.34765625 C4.9235779 410.4166219 -5.09810438 417.51271235 -18.49169922 418.73876953 C-33.41378792 419.69694278 -43.96148758 416.39165396 -55.5234375 406.55859375 C-63.70426849 398.87169972 -69.22124138 388.49171136 -69.89453125 377.17578125 C-70.24908194 363.42757368 -67.94628108 352.10376113 -58.5234375 341.55859375 C-57.79060547 340.67107422 -57.79060547 340.67107422 -57.04296875 339.765625 C-51.07770426 333.0933662 -41.55540677 327.05175991 -32.45214844 326.41333008 C-30.05910377 326.38856894 -27.66661971 326.3729375 -25.2734375 326.37109375 C-24.45230469 326.35884766 -23.63117188 326.34660156 -22.78515625 326.33398438 C-21.97175781 326.33205078 -21.15835938 326.33011719 -20.3203125 326.328125 C-19.59166992 326.32401611 -18.86302734 326.31990723 -18.11230469 326.31567383 C-15.5234375 326.55859375 -15.5234375 326.55859375 -13.66917419 327.20875549 C-11.55239844 327.93482195 -9.76150812 328.43846863 -7.5234375 328.55859375 C-4.81900973 326.81665312 -3.21039705 325.47580593 -1.08984375 323.171875 C-0.52643784 322.59906296 0.03696808 322.02625092 0.6174469 321.43608093 C2.40764127 319.60325363 4.15962908 317.73811114 5.9140625 315.87109375 C7.11952908 314.63260512 8.32719088 313.39624915 9.53710938 312.16210938 C17.06387273 305.06562348 17.06387273 305.06562348 19.6184082 295.47705078 C19.62544266 294.65834503 19.63247711 293.83963928 19.63972473 292.99612427 C19.64597115 291.66966385 19.64597115 291.66966385 19.65234375 290.31640625 C19.67557051 288.42577047 19.69968894 286.53514547 19.72460938 284.64453125 C19.75948022 281.67831505 19.78893042 278.71248838 19.80249023 275.74609375 C19.90759298 256.4977388 22.51038421 242.14893066 35.9140625 227.37109375 C43.9440401 219.61373884 55.75390041 213.42402966 66.9675293 213.44506836 C67.6214566 213.44492233 68.27538391 213.44477631 68.9491272 213.44462585 C71.10804576 213.44532187 73.26687778 213.45309967 75.42578125 213.4609375 C76.92364963 213.46280279 78.42151861 213.46422617 79.91938782 213.46522522 C83.86001269 213.46904168 87.80060064 213.47886455 91.74121094 213.4899292 C96.47024015 213.50196144 101.1992817 213.50654971 105.92832184 213.51238251 C113.11109439 213.52207676 120.29378597 213.54123939 127.4765625 213.55859375 C127.4765625 201.67859375 127.4765625 189.79859375 127.4765625 177.55859375 C122.64644531 177.61660156 117.81632813 177.67460937 112.83984375 177.734375 C109.75452309 177.75996442 106.66933582 177.7840366 103.58398438 177.80273438 C98.70146037 177.83246506 93.81941125 177.8673876 88.93725586 177.93579102 C84.99495987 177.99067176 81.05317405 178.02013022 77.11052513 178.03297997 C75.61679251 178.0421206 74.12308342 178.05996611 72.62957191 178.08724403 C59.19986534 178.32246304 47.67813318 175.69205126 37.4765625 166.55859375 C36.81140625 166.00816406 36.14625 165.45773437 35.4609375 164.890625 C27.50024226 157.76549892 22.13522301 147.10259993 20.4765625 136.55859375 C20.23830464 132.15517118 20.25158275 127.74397358 20.34960938 123.3359375 C20.25575165 117.19496045 19.05101214 114.07614012 14.72094727 109.72900391 C13.60997681 108.65465088 13.60997681 108.65465088 12.4765625 107.55859375 C11.14237239 106.12712808 9.80853614 104.69531053 8.48167419 103.25704956 C6.53718357 101.1673929 4.55149964 99.11951623 2.5612793 97.07348633 C1.53924316 96.01440445 0.52627824 94.94649929 -0.4777832 93.87036133 C-5.78959528 87.6500977 -5.78959528 87.6500977 -12.77075195 84.09106445 C-15.11450848 84.33637063 -15.11450848 84.33637063 -18.5234375 85.55859375 C-33.6337884 86.53811703 -43.88762108 83.26724689 -55.61328125 73.88671875 C-64.08099968 66.2803997 -69.78082333 54.37369901 -70.734375 43.0546875 C-71.21972994 29.9314365 -66.98382576 18.72148432 -58.86328125 8.4609375 C-43.14312844 -8.44844673 -19.84018909 -10.61292654 0 0 Z " fill="#0A2D45" transform="translate(365.5234375,298.44140625)"/>
<path d="M0 0 C0.66 0.66 1.32 1.32 2 2 C0.95199219 2.93972656 0.95199219 2.93972656 -0.1171875 3.8984375 C-1.02726563 4.71570313 -1.93734375 5.53296875 -2.875 6.375 C-3.77992188 7.18710937 -4.68484375 7.99921875 -5.6171875 8.8359375 C-7.10896183 10.19076205 -8.57505435 11.57505435 -10 13 C-10 9.28115772 -9.1259934 8.63852271 -6.6875 5.9375 C-5.76517578 4.89916016 -5.76517578 4.89916016 -4.82421875 3.83984375 C-3 2 -3 2 0 0 Z " fill="#246EA3" transform="translate(552,801)"/>
<path d="M0 0 C0.66 0.66 1.32 1.32 2 2 C0.37660195 3.70884005 -1.29319053 5.37446717 -3 7 C-3.66 7 -4.32 7 -5 7 C-5.33 8.32 -5.66 9.64 -6 11 C-6.99 11 -7.98 11 -9 11 C-6.36113346 6.7973607 -3.63559661 3.43361902 0 0 Z " fill="#173248" transform="translate(312,302)"/>
<path d="M0 0 C0 3 0 3 -1.75 5.04296875 C-2.4925 5.75066406 -3.235 6.45835937 -4 7.1875 C-4.7425 7.90292969 -5.485 8.61835938 -6.25 9.35546875 C-6.8275 9.89816406 -7.405 10.44085938 -8 11 C-8.99 10.67 -9.98 10.34 -11 10 C-5.555 5.05 -5.555 5.05 0 0 Z " fill="#1B3449" transform="translate(630,367)"/>
<path d="M0 0 C2.1328125 0.39453125 2.1328125 0.39453125 4 1 C2.71372289 2.17260611 1.42080217 3.3379283 0.125 4.5 C-0.59429687 5.1496875 -1.31359375 5.799375 -2.0546875 6.46875 C-4 8 -4 8 -6 8 C-4.56036361 4.64084842 -2.87583411 2.28375062 0 0 Z " fill="#1A344A" transform="translate(484,307)"/>
<path d="M0 0 C0.33 0.66 0.66 1.32 1 2 C-0.98 4.31 -2.96 6.62 -5 9 C-5.66 8.67 -6.32 8.34 -7 8 C-4.69 5.36 -2.38 2.72 0 0 Z " fill="#1F374C" transform="translate(484,637)"/>
<path d="M0 0 C0.66 0 1.32 0 2 0 C0.70700306 2.88437779 -0.65941363 4.87219421 -3 7 C-3.66 6.67 -4.32 6.34 -5 6 C-3.38405168 3.95880212 -1.7143618 1.95927063 0 0 Z " fill="#1E364B" transform="translate(610,386)"/>
</svg>
